<?xml version="1.0" encoding="utf-8"?>
<!-- Generator: Adobe Illustrator 26.0.2, SVG Export Plug-In . SVG Version: 6.00 Build 0)  -->
<svg version="1.1" id="レイヤー_1" xmlns="http://www.w3.org/2000/svg" xmlns:xlink="http://www.w3.org/1999/xlink" x="0px"
	 y="0px" viewBox="0 0 199.81 56.22" style="enable-background:new 0 0 199.81 56.22;" xml:space="preserve">
<style type="text/css">
	.st0{enable-background:new    ;}
</style>
<g class="st0">
	<path d="M24.73,4.59c0,0.78-0.49,2.42-0.86,3.16c-0.41,0.7-0.45,1.11-1.03,2.22c-0.66,1.15-0.86,1.35-1.48,2.22
		c-0.62,0.86-0.7,1.07-1.48,2.34c-0.86,1.31-0.66,1.52-1.44,2.96s-1.15,1.48-1.77,3c-0.49,1.56-1.07,2.63-1.93,3.82
		c-0.53,0.78-0.78,1.6-0.78,2.63c0,0.49,0.62,0.62,1.19,0.62c0.21,0,0.41,0,0.57-0.04c0.49-0.16,1.31-0.78,2.59-1.35
		c1.27-0.62,1.97-1.03,2.59-1.52c0.62-0.57,2.3-1.56,3.24-2.46c0.98-0.9,4.06-3.28,5.17-4.31c1.19-1.11,1.81-1.81,2.5-2.71
		c0.66-0.9,1.35-2.22,2.05-3.08c0.74-0.94,0.7-1.52,1.15-2.75c0.53-1.19,0.53-1.72,0.53-3.61c0-1.52-0.49-3.49-0.94-4.27
		c-0.25-0.37-0.66-0.7-0.66-0.94c0.08-0.16,1.44-0.74,2.05-0.74c1.11,0,1.81,1.23,2.05,2.3c0.08,0.29,0.08,0.66,0.08,1.03
		c0,1.07-0.16,2.3-0.21,2.91c-0.08,0.86-0.62,2.42-0.99,3.24c-0.29,0.74-1.31,3.12-1.81,3.69c-0.41,0.58-1.4,1.64-2.26,2.87
		c-0.86,1.15-1.89,2.18-2.63,2.92c-0.7,0.74-1.72,1.48-2.67,2.3c-0.9,0.78-1.6,1.19-2.46,1.85c-0.82,0.53-1.15,0.45-1.81,1.31
		c-0.53,0.74-1.03,1.11-2.34,1.68c-1.27,0.57-3.86,2.79-6.77,2.79c-2.05,0-2.59-1.27-2.59-1.68c0-0.37,0.04-1.11,0.49-2.42
		c0.53-1.27,0.57-1.64,1.44-3.37c0.9-1.81,0.7-2.13,1.56-3.69c0.86-1.56,2.26-3.65,2.42-3.86c0.25-0.29,0.53-0.99,0.7-1.56
		c0.21-0.57,0.37-0.78,1.07-1.85c0.7-1.03,1.11-2.26,1.93-4.02c0.33-0.7,0.45-1.35,0.45-1.89c0-0.78-0.29-1.31-0.82-1.31
		c-1.23,0-2.75,0.33-3.61,0.57c-0.62,0.16-1.68,0.53-2.63,0.94v0.16c0,0.37-0.04,0.74-0.12,1.15c0,0.04-0.16,0.57-0.16,0.74
		c0,1.6-1.07,3.04-1.44,3.45c-0.33,0.53-0.49,0.57-0.62,1.07c-0.25,0.74-0.25,0.62-0.66,1.27c-0.45,0.66-1.81,2.42-3.98,4.27
		c-2.22,1.85-3.45,2.26-4.02,2.54c-0.37,0.16-1.19,0.29-1.81,0.29c-0.29,0-0.53,0-0.66-0.08c-0.29-0.21-1.11-0.53-1.11-2.01
		c0-1.48,0.62-2.5,1.4-3.78c0.78-1.35,1.6-2.18,2.38-2.67c0.78-0.45,0.82-0.99,1.48-1.68c0.7-0.66,1.81-1.35,2.63-2.05
		c0.82-0.7,1.27-0.94,1.97-1.27c0.53-0.37,1.15-0.94,2.13-1.44C12,4.18,11.92,4.01,11.88,3.89c-0.04-0.04-0.04-0.12-0.04-0.16
		c0-0.08,0.04-0.16,0.04-0.29c0-0.16-0.04-0.37-0.21-0.7c-0.41-0.74-0.49-0.53-1.15-0.7C10.44,2.04,10.36,2,10.28,2
		C9.79,2,9.5,2.33,9.17,2.58c-0.25,0-0.7,0.21-0.7,0.21c0-0.04,0.04-0.12,0.12-0.21c0.25-0.53,0.94-0.98,1.6-1.27
		c0.45-0.21,1.03-0.37,1.64-0.37c0.33,0,0.62,0.04,0.9,0.16c0.86,0.33,1.23,0.58,1.56,1.6c0.04,0.21,0.12,0.37,0.16,0.53
		c0.9-0.41,1.93-0.86,2.79-1.03c1.6-0.33,2.63-0.66,3.65-0.66C23.58,1.59,24.73,3.44,24.73,4.59z M12.08,6.44V5.7
		c-0.9,0.41-1.76,0.86-2.46,1.44C8.6,7.91,8.14,8.12,7.69,8.69C7.16,9.23,6.83,8.98,6.21,9.6c-0.62,0.53-1.68,1.6-2.3,2.38
		c-0.66,0.74-0.74,0.94-1.4,1.64c-0.66,0.74-0.94,1.07-1.11,1.89c0,0.04-0.04,0.12-0.04,0.16c-0.12,0.37-0.25,0.82-0.25,1.23
		c0,0.37,0.12,0.78,0.41,1.11c0.41,0.41,0.82,0.57,1.23,0.57c0.25,0,0.45-0.04,0.66-0.12c0.57-0.16,0.82-0.33,1.19-0.7
		c0.41-0.33,0.86-0.78,1.52-1.15c0.57-0.37,1.52-1.27,2.01-1.89c0.62-0.66,2.05-2.54,2.59-3.86C11.26,9.6,12.08,7.5,12.08,6.44z"/>
	<path d="M50.46,25.03c-0.25,0.29-0.82,0.12-1.31,0.37c-0.16,0.04-0.49,0.08-0.82,0.08c-0.62,0-1.31-0.08-1.48-0.12
		c-0.29-0.04-1.31-0.62-1.48-0.94c-0.21-0.37-0.62-0.78-0.62-1.48c0-0.29-0.04-0.53-0.04-0.78c0-0.37,0.04-0.74,0.16-0.99
		c0.29-0.45,0.7-1.6,1.03-1.76c0.21-0.16,0.45-0.49,0.62-0.78c0.08-0.17,0.45-0.66,0.66-1.03c0.21-0.29,0.29-0.49,0.29-0.66
		c0-0.21-0.12-0.41-0.37-0.41c-0.41,0-1.15,0.25-1.68,0.49c-0.57,0.29-1.23,0.49-1.64,0.7c-0.45,0.29-2.09,0.94-2.5,1.23
		c-0.49,0.25-1.44,0.7-1.76,0.82l-2.83,1.23c-0.04,0.04-0.45,0.25-0.66,0.25s-0.49-0.17-0.53-0.37c0-0.16,0.21-0.25,0.53-0.41
		c0.21-0.16,0.29-0.16,0.45-0.25c0.41-0.04,0.94-0.29,0.98-0.41c0.12-0.16,0.94-0.53,1.56-0.78c1.6-0.66,2.05-0.94,2.46-1.15
		c0.53-0.25,0.7-0.08,1.11-0.41c0.21-0.12,1.19-0.74,2.22-1.23c1.35-0.66,2.05-0.9,2.3-1.07c0.62-0.41,1.56-0.74,2.3-0.74
		c0.53,0,0.98,0.16,1.4,0.45c0.41,0.29,0.57,0.62,0.57,1.27c0,0.86-1.15,1.72-1.15,2.13c-0.33,0.37-0.37,0.7-0.74,1.11
		c-0.37,0.45-0.78,0.78-0.99,1.35c-0.33,0.74-0.66,1.72-0.66,2.67c0,0.49,0.66,0.78,0.99,0.78c0.29,0,0.62,0.04,0.9,0.04
		c0.29,0,0.53-0.04,0.74-0.16c0.33-0.08,1.15-0.33,1.4-0.45c0.66-0.12,1.27-0.25,1.52-0.41c0.45-0.21,0.98-0.08,1.4-0.37
		c0.25-0.21,1.48-0.53,1.72-0.7c0.25-0.16,0.74-0.25,1.03-0.37c0.25-0.12,0.12-0.08,0.62-0.37c0.29-0.08,0.66-0.37,1.15-0.62
		c0.16-0.08,0.41-0.21,0.62-0.21c0.21,0,0.45,0.16,0.45,0.41c0,0.16-0.12,0.25-0.16,0.29c-0.45,0.29-0.98,0.49-1.44,0.86
		c-0.57,0.45-1.19,0.33-1.85,0.74c-0.33,0.21-0.74,0.33-1.03,0.41c-0.53,0.21-0.98,0.25-1.11,0.33c-0.21,0.37-1.6,0.53-2.09,0.74
		C51.69,24.87,50.71,24.78,50.46,25.03z M55.63,6.48c0,0.37-0.08,0.74-0.37,0.9c-0.41,0.16-0.7,0.25-1.07,0.41
		C53.95,7.87,53.5,8,53.25,8c-0.37,0-0.94-0.37-0.98-0.62c0-0.29,0.12-0.7,0.29-0.94c0.12-0.21,0.25-0.41,0.49-0.45
		c0.53-0.12,0.94-0.53,1.48-0.53C55.18,5.45,55.63,5.78,55.63,6.48z"/>
	<path d="M70.49,25.85c-0.53,0.29-1.31,0.7-1.89,0.78C68.03,26.71,67.37,27,66.3,27c-1.48,0-2.3-1.15-2.3-2.59
		c0-0.94,0.29-1.89,0.53-3c0.16-0.78,0.94-2.05,1.4-2.92l-0.41,0.29c-0.41,0.25-1.4,0.74-1.72,0.78l-1.77,0.78
		c-0.37,0.16-0.66,0.33-1.07,0.45c-0.12,0.04-0.49,0.25-0.66,0.25c-0.29,0-0.53-0.16-0.57-0.33c0-0.16,0.25-0.29,0.57-0.41
		c0.16-0.21,0.33-0.25,0.41-0.25c0.45-0.08,0.94-0.33,1.03-0.45c0.12-0.08,0.9-0.49,1.56-0.78c0.33-0.08,0.94-0.45,1.23-0.53
		c0.37-0.08,0.82-0.37,1.27-0.57c0.29-0.12,0.45-0.12,0.7-0.29c0.37-1.35,1.35-2.54,2.13-3.82c0.49-0.82,0.98-1.27,1.52-1.97
		c0.57-0.74,0.94-1.56,1.56-2.13c0.45-0.58,1.15-1.03,1.52-1.23c0.41-0.21,0.78-1.35,1.56-1.89c0.82-0.53,1.19-1.31,1.77-1.48
		c0.49-0.21,1.19-1.07,2.01-1.6c0.82-0.58,1.85-1.11,2.75-1.11c0.7,0,1.56,0.33,1.56,0.94c0,0.37-0.04,0.57-0.25,1.11
		c-0.21,0.45-0.45,1.07-0.74,1.44c-0.25,0.33-0.57,0.82-0.9,1.23c-0.33,0.45-0.66,0.78-0.94,1.15c-0.33,0.33-0.53,0.78-1.07,1.07
		c-0.53,0.29-0.53,0.62-0.94,0.86c-0.37,0.33-1.23,1.31-1.64,1.68c-0.33,0.41-0.78,0.62-1.07,0.9c-0.29,0.29-0.7,0.74-1.07,1.03
		c-0.45,0.25-0.9,0.57-1.19,0.86c-0.25,0.29-1.27,0.9-1.93,1.27c-0.33,0.16-1.07,0.49-1.07,0.49c-0.49,0.94-1.11,1.93-1.4,2.5
		c-0.53,1.07-0.62,1.97-0.86,2.54c-0.16,0.53-0.12,1.03-0.45,1.6c-0.33,0.53-0.33,1.15-0.33,1.72c0,0.37,0.29,0.7,1.11,0.7
		c0.33,0,0.82-0.12,1.27-0.25c0.37-0.12,1.07-0.29,1.6-0.41c0.53-0.16,1.15-0.82,1.72-0.86s0.98-0.41,1.27-0.57
		c0.45-0.25,1.03-0.29,1.4-0.57c0.25-0.21,1.48-0.49,1.68-0.66c0.25-0.21,0.78-0.29,1.07-0.41c0.29-0.12,0.04-0.08,0.62-0.33
		c0.33-0.12,0.82-0.37,1.15-0.62c0.12-0.12,0.37-0.21,0.57-0.21c0.16,0,0.45,0.12,0.45,0.33c0,0.08-0.08,0.21-0.16,0.33
		c-0.37,0.41-1.03,0.45-1.48,0.78c-0.57,0.41-1.15,0.41-1.81,0.86c-0.33,0.21-0.7,0.33-1.03,0.41c-0.53,0.16-0.98,0.25-1.07,0.37
		c-0.25,0.29-1.4,0.7-1.89,0.9C73.08,24.62,71.02,25.52,70.49,25.85z M72.01,14.32c0.33-0.29,0.82-0.45,1.19-0.86
		c0.33-0.49,0.82-0.78,1.19-1.11c0.33-0.25,1.03-0.86,1.23-0.94c0.25-0.08,0.29-0.37,0.78-0.94c0.53-0.57,1.03-0.98,1.48-1.52
		c0.45-0.57,0.62-0.86,0.98-1.07c0.41-0.16,0.57-0.7,0.86-0.98c0.25-0.25,0.82-0.9,1.07-1.31c0.12-0.21,0.37-0.62,0.37-0.94
		c0-0.21-0.12-0.37-0.49-0.37c-0.33,0-0.86,0.49-1.27,0.9c-0.41,0.41-0.82,1.03-1.07,1.03c-0.29,0-0.57,0.49-0.9,0.82
		c-0.37,0.37-0.45,0.7-1.03,1.11c-0.49,0.41-1.23,1.44-1.64,1.76c-0.37,0.41-0.62,0.82-1.48,1.64c-0.9,0.86-1.11,1.48-1.27,1.72
		c-0.16,0.29-0.53,0.9-1.15,1.81C70.86,15.06,71.68,14.65,72.01,14.32z"/>
	<path d="M90.97,25.85c-0.53,0.29-1.31,0.7-1.89,0.78c-0.57,0.08-1.23,0.37-2.3,0.37c-1.48,0-2.3-1.15-2.3-2.59
		c0-0.94,0.29-1.89,0.53-3c0.16-0.78,0.94-2.05,1.4-2.92L86,18.79c-0.41,0.25-1.4,0.74-1.72,0.78l-1.76,0.78
		c-0.37,0.16-0.66,0.33-1.07,0.45c-0.12,0.04-0.49,0.25-0.66,0.25c-0.29,0-0.53-0.16-0.57-0.33c0-0.16,0.25-0.29,0.57-0.41
		c0.16-0.21,0.33-0.25,0.41-0.25c0.45-0.08,0.94-0.33,1.03-0.45c0.12-0.08,0.9-0.49,1.56-0.78c0.33-0.08,0.94-0.45,1.23-0.53
		c0.37-0.08,0.82-0.37,1.27-0.57c0.29-0.12,0.45-0.12,0.7-0.29c0.37-1.35,1.35-2.54,2.13-3.82c0.49-0.82,0.98-1.27,1.52-1.97
		c0.57-0.74,0.94-1.56,1.56-2.13c0.45-0.58,1.15-1.03,1.52-1.23c0.41-0.21,0.78-1.35,1.56-1.89c0.82-0.53,1.19-1.31,1.77-1.48
		c0.49-0.21,1.19-1.07,2.01-1.6c0.82-0.58,1.85-1.11,2.75-1.11c0.7,0,1.56,0.33,1.56,0.94c0,0.37-0.04,0.57-0.25,1.11
		c-0.21,0.45-0.45,1.07-0.74,1.44c-0.25,0.33-0.58,0.82-0.9,1.23c-0.33,0.45-0.66,0.78-0.94,1.15c-0.33,0.33-0.53,0.78-1.07,1.07
		s-0.53,0.62-0.94,0.86c-0.37,0.33-1.23,1.31-1.64,1.68c-0.33,0.41-0.78,0.62-1.07,0.9c-0.29,0.29-0.7,0.74-1.07,1.03
		c-0.45,0.25-0.9,0.57-1.19,0.86c-0.25,0.29-1.27,0.9-1.93,1.27c-0.33,0.16-1.07,0.49-1.07,0.49c-0.49,0.94-1.11,1.93-1.4,2.5
		c-0.53,1.07-0.62,1.97-0.86,2.54c-0.16,0.53-0.12,1.03-0.45,1.6c-0.33,0.53-0.33,1.15-0.33,1.72c0,0.37,0.29,0.7,1.11,0.7
		c0.33,0,0.82-0.12,1.27-0.25c0.37-0.12,1.07-0.29,1.6-0.41c0.53-0.16,1.15-0.82,1.72-0.86s0.98-0.41,1.27-0.57
		c0.45-0.25,1.03-0.29,1.4-0.57c0.25-0.21,1.48-0.49,1.68-0.66c0.25-0.21,0.78-0.29,1.07-0.41s0.04-0.08,0.62-0.33
		c0.33-0.12,0.82-0.37,1.15-0.62c0.12-0.12,0.37-0.21,0.57-0.21c0.16,0,0.45,0.12,0.45,0.33c0,0.08-0.08,0.21-0.16,0.33
		c-0.37,0.41-1.03,0.45-1.48,0.78c-0.57,0.41-1.15,0.41-1.81,0.86c-0.33,0.21-0.7,0.33-1.03,0.41c-0.53,0.16-0.99,0.25-1.07,0.37
		c-0.25,0.29-1.4,0.7-1.89,0.9C93.56,24.62,91.5,25.52,90.97,25.85z M92.49,14.32c0.33-0.29,0.82-0.45,1.19-0.86
		c0.33-0.49,0.82-0.78,1.19-1.11c0.33-0.25,1.03-0.86,1.23-0.94c0.25-0.08,0.29-0.37,0.78-0.94c0.53-0.57,1.03-0.98,1.48-1.52
		c0.45-0.57,0.62-0.86,0.98-1.07c0.41-0.16,0.57-0.7,0.86-0.98c0.25-0.25,0.82-0.9,1.07-1.31c0.12-0.21,0.37-0.62,0.37-0.94
		c0-0.21-0.12-0.37-0.49-0.37c-0.33,0-0.86,0.49-1.27,0.9c-0.41,0.41-0.82,1.03-1.07,1.03c-0.29,0-0.57,0.49-0.9,0.82
		c-0.37,0.37-0.45,0.7-1.03,1.11c-0.49,0.41-1.23,1.44-1.64,1.76c-0.37,0.41-0.62,0.82-1.48,1.64c-0.9,0.86-1.11,1.48-1.27,1.72
		c-0.16,0.29-0.53,0.9-1.15,1.81C91.34,15.06,92.16,14.65,92.49,14.32z"/>
	<path d="M107.92,18.01c-0.49,0.21-1.44,0.66-1.85,0.94c-0.45,0.25-1.31,0.7-1.81,0.82c-0.25,0.08-1.35,0.7-1.72,0.86l-1.07,0.49
		c-0.08,0.04-0.49,0.25-0.66,0.25c-0.25,0-0.53-0.17-0.53-0.33c0-0.21,0.21-0.33,0.53-0.45c0.16-0.16,0.29-0.21,0.41-0.25
		c0.45-0.04,0.99-0.33,1.03-0.41c0.12-0.12,0.94-0.49,1.6-0.74c0,0,1.07-0.7,1.52-0.82c0.33-0.12,0.45-0.33,0.86-0.57
		c0.53-0.21,0.62-0.21,1.03-0.49c0.12-0.12,0.7-0.53,1.85-1.07c0.12-0.12,0.45-0.25,0.58-0.33c0.62-0.29,0.7-0.57,0.9-0.74
		c0.12-0.04,0.53-0.29,2.54-1.52c0.45-0.29,0.86-0.7,1.23-0.99c0.49-0.33,1.4-0.57,2.01-0.57c0.94,0,1.68,0.62,1.85,1.07
		c0.21,0.45,0.21,0.58,0.21,1.27c0,0.74-0.16,1.4-0.41,1.81c-0.29,0.49-0.16,1.11-0.53,1.6c-0.21,0.41-0.37,0.94-0.37,1.23
		c0,0.12,0,0.21,0.08,0.21c0.37,0,0.29-0.08,0.86-0.49c0.9-0.7,1.48-1.31,1.89-1.35c0.41-0.08,0.45-0.37,0.7-0.53
		c0.29-0.25,0.7-0.57,1.23-0.86c0.49-0.29,1.35-0.78,2.05-0.99c0.45-0.16,0.9-0.29,1.35-0.29c0.21,0,0.37,0.04,0.53,0.08
		c0.7,0.16,1.19,0.45,1.44,0.98c0.12,0.49,0.7,1.44,0.74,2.05c0.04,0.66,0.86,1.48,0.98,2.18c0.16,0.66,0.86,1.72,1.15,2.01
		c0.25,0.25,1.23,0.78,2.46,0.78c1.44,0,1.81-0.04,2.22-0.16c0.37-0.08,1.03-0.29,1.72-0.53c0.33-0.16,1.03-0.29,1.64-0.7
		c0.21-0.04,0.49-0.16,0.62-0.29c0.45,0,0.78-0.49,1.35-0.53c0.21,0,0.41,0.12,0.41,0.37c0,0.16-0.12,0.25-0.12,0.29l-1.68,0.86
		c-0.62,0.37-1.19,0.37-1.93,0.78c-0.33,0.16-0.78,0.25-1.07,0.29c-0.62,0.16-1.07,0.41-1.44,0.41c-0.7,0.16-1.23,0.25-1.81,0.25
		c-1.35,0-2.46-0.12-3.33-0.25c-0.57,0-0.57-0.25-1.31-0.45c-0.66-0.25-0.62-0.49-1.27-0.86c-0.57-0.33-0.49-0.33-0.98-1.15
		c-0.53-0.9-0.7-1.23-0.82-1.81c-0.16-0.74-0.21-1.15-0.29-1.6c-0.12-0.66-0.16-1.31-0.78-1.31c-0.16,0-0.53,0.08-0.86,0.21
		c-0.33,0.16-0.74,0.41-1.03,0.7c-0.29,0.29-0.94,0.7-1.6,1.03c-0.7,0.37-0.78,0.49-1.03,0.82s-1.19,0.74-1.81,1.23
		c-0.66,0.45-0.82,0.66-1.19,1.15c-0.45,0.7-1.03,1.48-1.4,1.93c-0.25,0.33-0.78,1.23-1.4,1.23c-0.37,0-0.62-0.16-0.94-0.7
		c-0.16-0.29-0.25-0.49-0.25-0.74c0-0.21,0.08-0.41,0.12-0.57c0.16-0.41,0.41-1.23,0.74-1.81c0.33-0.57,0.25-0.82,0.45-1.35
		c0.21-0.66,0.41-1.03,0.7-1.52c0.33-0.62,0.62-1.81,0.7-2.01c0.04-0.08,0.04-0.29,0.04-0.49s0-0.37-0.04-0.49
		c-0.08-0.21-0.33-0.41-0.74-0.41c-0.16,0-0.37,0.08-0.94,0.37c-0.33,0.33-2.91,1.64-3.74,2.05
		C108.66,17.52,108.13,17.85,107.92,18.01z"/>
	<path d="M152.62,25.4c-0.16,0-0.33,0.04-0.49,0.04c-0.82,0-1.81-0.16-2.46-0.33c-0.74-0.25-1.23-0.66-1.52-1.03
		c-0.33-0.45-0.99-1.15-0.99-1.68c-0.04-0.53-0.16-1.23-0.16-1.68c0-0.29,0.21-0.45,0.25-1.11c0-0.53,0.49-1.35,1.11-2.13
		c-0.94,0.53-2.59,1.19-3,1.48c-0.45,0.25-1.44,0.7-1.72,0.82c-0.45,0.21-1.27,0.49-1.81,0.78c-0.33,0.16-0.74,0.29-1.03,0.45
		c-0.12,0.04-0.53,0.25-0.66,0.25c-0.29,0-0.57-0.17-0.57-0.37c0-0.16,0.29-0.25,0.57-0.41c0.12-0.16,0.29-0.16,0.45-0.25
		c0.37-0.04,0.9-0.29,0.99-0.41c0.12-0.16,0.9-0.45,1.56-0.78c0.29-0.12,0.9-0.33,1.23-0.58c0.29-0.21,0.82-0.37,1.23-0.57
		c0.49-0.25,0.62-0.12,1.11-0.41c0.62-0.37,3.12-1.72,4.15-2.22c1.6-0.78,2.13-1.03,2.91-1.31c0.37-0.12,0.82-0.21,1.27-0.21
		c0.41,0,0.78,0.04,1.07,0.12c0.49,0.21,0.7,0.86,0.7,1.35c0,0.53-0.33,1.07-0.7,1.48c-0.45,0.62-1.35,1.4-2.01,1.85
		c-0.78,0.53-1.44,0.99-2.3,1.44c-0.53,0.33-1.23,0.57-1.68,0.7c0,0.25,0.08,0.49,0.08,0.78c0.08,0.41,0.49,1.48,0.78,1.76
		c0.37,0.33,0.78,0.41,0.99,0.53c0.16,0.08,0.82,0.12,1.4,0.12c1.48,0,2.09-0.08,2.38-0.21c0.57-0.16,1.31-0.29,1.56-0.45
		c0.49-0.21,0.98-0.08,1.44-0.37c0.21-0.21,1.44-0.53,1.72-0.7c0.21-0.16,0.74-0.25,1.03-0.37c0.25-0.12,0.08-0.08,0.62-0.37
		c0.21-0.08,0.49-0.21,0.62-0.29c0.16-0.08,0.49-0.33,0.53-0.37c0.16-0.08,0.37-0.16,0.58-0.16c0.12,0,0.25,0.04,0.37,0.12
		c0.08,0.12,0.12,0.21,0.12,0.29c0,0.16-0.12,0.25-0.16,0.29c-0.25,0.12-0.86,0.41-0.86,0.41c-0.16,0.16-0.49,0.29-0.62,0.45
		c-0.58,0.37-1.15,0.33-1.81,0.74c-0.33,0.21-0.74,0.33-1.07,0.41c-0.53,0.21-0.99,0.25-1.07,0.33c-0.21,0.37-1.56,0.7-2.09,0.86
		C156.23,24.74,154.59,25.19,152.62,25.4z M150.28,19.82c0.49-0.16,1.11-0.45,1.44-0.66c0.66-0.49,1.35-0.94,1.52-1.07
		c0.21-0.21,1.23-1.31,1.4-1.56c0.21-0.25,0.37-0.7,0.37-1.03c0-0.12-0.16-0.33-0.45-0.33c-0.17,0-0.37,0.08-0.62,0.25
		c-0.66,0.49-1.15,0.9-1.44,1.19c-0.57,0.53-1.6,1.56-2.05,2.71C150.32,19.57,150.32,19.65,150.28,19.82z"/>
</g>
<g class="st0">
	<path d="M40.9,35.64c0,0.57-0.92,2.58-1.05,3.06c-0.57,1.35-0.74,1.4-1.88,2.8s-2.8,2.45-4.11,3.23c-1.4,0.79-3.23,1.09-4.37,1.09
		c-1.14-0.13-3.15-0.88-3.67-1.97c-0.31-0.61-0.39-1.27-0.39-1.92c0-0.57,0.09-1.09,0.17-1.62c0.09-1.27,0.48-1.31,0.66-1.97
		c0.22-0.61,0.57-1.18,1.27-2.23c0.74-1.09,3.1-3.37,4.68-4.55c1.35-1.01,2.8-1.57,3.93-2.1c0.83-0.39,2.54-0.96,3.5-1.31
		c0.92-0.31,2.23-0.79,3.28-0.83c1.05,0,4.33-0.26,5.46-0.26c0.48,0,1.31,0.13,2.19,0.31c0.31-0.35,0.66-0.66,1.05-1.05
		c1.05-1.05,2.23-1.49,2.89-1.71c0.22-0.09,0.39-0.09,0.61-0.09c0.66,0,1.18,0.26,1.18,0.74c0,0.22-0.22,0.26-1.05,0.26
		c-0.26,0-0.57,0-0.79,0.09c-0.83,0.39-1.53,1-2.14,2.19c0.79,0.22,1.44,0.48,1.84,0.74c1.01,0.74,3.67,1.66,5.12,3.5
		c1.49,1.84,1.84,4.24,2.14,5.16c0.09,0.39,0.13,1,0.13,1.7c0,0.96-0.09,2.14-0.35,3.32c-0.44,2.05-0.57,2.45-1.14,3.67
		c-0.57,1.22-0.44,1.18-1.31,2.45c-0.57,0.79-1.01,1.01-1.4,1.31c1.49-0.18,3.37-0.39,3.8-0.61c0.26-0.13,1.71-0.35,1.97-0.48
		c0.26-0.22,0.79-0.35,1.05-0.48c0.44-0.22,0.79-0.31,1.22-0.57c0.09-0.09,0.52-0.31,0.74-0.44c0.13-0.09,0.35-0.18,0.48-0.22
		c0.26,0,0.44,0.04,0.52,0.13c0.13,0.09,0.13,0.22,0.13,0.31c0,0.13-0.17,0.31-0.35,0.44c-0.52,0.3-1.01,0.44-1.44,0.7
		c-0.61,0.35-1.14,0.39-1.71,0.79c-0.35,0.22-1.14,0.3-1.44,0.39l-0.83,0.22c-1.53,0.48-3.58,0.79-5.33,1.01
		c-0.87,0.83-2.36,1.84-4.55,3.02c-2.58,1.4-4.15,1.57-5.51,1.88c-0.61,0.17-1.36,0.22-2.01,0.22c-0.7,0-1.31-0.04-1.75-0.22
		c-0.87-0.39-1.62-0.88-2.05-1.4c-0.17-0.22-0.31-0.57-0.31-0.92c0-0.39,0.17-0.88,0.74-1.27c1.05-0.74,3.19-0.52,4.77-0.87
		c1.53-0.31,2.97-0.44,3.89-0.44c0.18,0,0.35,0.04,0.48,0.04c0.7,0,1.14-0.17,2.1-0.35l0.92-0.17l0.66-0.61
		c0.96-0.83,1.62-1.84,2.1-2.62c0.44-0.74,0.87-0.87,1.31-1.57c0.35-0.7,0.39-1.92,0.92-3.19c0.39-1.27,0.39-1.88,0.39-3.02
		c0-1.71-0.17-3.45-0.39-3.85c-0.22-0.44-1.36-2.93-2.05-3.63c-0.74-0.74-1.36-1.57-2.62-2.23c-0.39-0.22-0.92-0.44-1.49-0.66
		c-0.31,0.7-0.57,1.4-1.18,2.62c-0.92,1.88-1.66,2.62-2.45,4.59c-0.79,1.97-1.4,3.63-1.97,4.11c-0.44,0.39-0.39,0.79-0.57,1.36
		s-0.31,0.96-0.92,1.84c-0.57,0.92-1.79,2.32-2.4,3.67c-0.66,1.4-0.79,1.66-1.66,2.58c-0.79,0.96-0.57,1.01-3.54,3.19
		c-1.05,0.79-3.28,1.92-4.28,2.36c-1.01,0.48-1.75,0.61-3.32,0.61c-0.26,0-0.48,0.04-0.7,0.04c-1.09,0-1.62-0.26-2.32-0.53
		c-0.09,0-0.17-0.04-0.22-0.04c-0.61-0.13-0.79-0.18-1.75-1.01c-0.48-0.53-0.74-1.05-0.74-1.53c0-0.48,0.26-0.92,0.74-1.22
		c0.48-0.35,0.79-0.57,1.05-0.57c0.22,0,0.39,0.17,0.44,0.57c0.09,0.74-0.09,1.71,0.52,2.27c0.66,0.61,1.84,1.09,3.06,1.09
		c1.62,0,2.97-0.39,3.8-0.87c0.92-0.44,1.4-1.22,2.1-1.62c0.66-0.35,0.61-0.65,1.22-1.27c0.52-0.65,1.01-0.83,1.44-1.79
		c0.39-0.88,0.92-2.23,1.97-4.02c1.09-1.79,1.7-3.06,2.45-4.33c0.74-1.36,0.87-1.97,1.53-3.28c0.57-1.36,1.05-1.05,1.49-2.32
		c0.48-1.27,0.83-1.49,1.18-2.32c0.35-0.87,0.35-0.96,1.01-2.01c0.7-1.09,1.01-1.31,1.44-2.14l0.44-0.61l-1.49-0.26
		c-1.22-0.22-2.71-0.31-3.89-0.31c-1.7,0-2.45,0.66-3.58,0.92c-0.87,0.13-2.84,1-4.72,1.92c-1.88,0.96-2.23,1.49-3.1,2.41
		c-0.87,0.92-1.14,1-2.01,2.01c-0.83,0.88-0.92,0.96-1.49,2.19c-0.52,1.31-0.92,2.4-0.92,4.63c0,2.23,0.66,2.54,1.53,2.8
		c0.22,0.09,0.48,0.13,0.74,0.13c0.83,0,1.79-0.35,2.67-0.88c1.14-0.61,1.4-1.09,1.75-1.31c0.39-0.22,0.87-0.83,1.57-1.75
		c0.57-0.79,0.79-1.22,1.01-1.66c0.48-0.83,0.31-0.92,0.57-1.92c0.13-0.44,0.44-2.01,0.44-2.8c0-0.66,0.22-0.83,0.35-0.83
		C39.93,33.71,40.9,34.72,40.9,35.64z M51.87,51.38l-2.27,0.35c-0.96,0.09-1.79,0.13-2.71,0.26c-1.31,0-2.67,0.39-3.98,0.39
		c-0.74,0-1.14,0.44-1.14,0.83c0,0.52,0.83,1.05,1.79,1.31c0.96,0.26,1.27,0.48,2.1,0.48s1.71-0.35,3.06-0.92
		C49.42,53.78,50.73,52.51,51.87,51.38z"/>
	<path d="M89.63,47.7c0.17-0.09,0.52-0.17,0.66-0.22c0.13-0.09,0.39-0.17,0.57-0.35c0.13-0.09,0.44-0.22,0.66-0.22
		c0.17,0,0.48,0.18,0.48,0.44c0,0.18-0.17,0.26-0.22,0.31c-0.17,0.13-0.83,0.44-0.83,0.44c-0.22,0.17-0.79,0.26-0.96,0.39
		c-0.22,0.13-0.57,0.18-1.01,0.31c-0.17,0.04-0.39,0.17-0.57,0.26c-0.57,0.26-1.4,0.39-2.27,0.53c-0.96,0.13-1.97,0.17-3.5,0.17
		c-0.61,0-1.57-0.13-2.36-0.35c-0.44,0.61-1.09,1.36-1.75,1.75c-0.61,0.3-0.48,0.52-0.96,0.74c-1.84,0.83-3.06,1.01-4.59,1.01
		c-0.31,0-1.97-0.44-2.36-1.44c-0.31-0.61-0.57-1.36-0.57-1.97c0-0.31,0.09-0.57,0.22-0.79c0.48-0.61,0.13-1.01,0.48-1.49
		c0.35-0.39,0.79-1.44,0.96-1.62c0,0,0-0.04,0.04-0.13c-0.35,0.35-0.87,0.39-1.14,0.57c-0.35,0.26-1.7,0.7-1.92,0.79
		c-0.17,0.04-1.09,0.52-1.09,0.52c-0.13,0.04-0.57,0.26-0.7,0.26c-0.31,0-0.61-0.18-0.61-0.39c0-0.17,0.31-0.26,0.61-0.44
		c0.13-0.17,0.31-0.17,0.48-0.26c0.39-0.04,0.96-0.31,1.05-0.44c0.13-0.17,0.92-0.57,1.66-0.83c1.79-0.79,2.32-1.27,2.84-1.27
		c0.39-0.13,0.74-0.22,1.09-0.48c-0.04-0.31-0.17-0.61-0.17-0.83c0-0.09,0-0.13,0.04-0.17c0.17-0.74,0-1.27,0.48-1.84
		s1.09-0.96,1.62-1.18c0.52-0.3,1.53-0.61,2.01-0.74c0.52-0.09,1.14-0.18,1.57-0.18c0.61,0,1.66,0.44,2.1,0.83
		c0.39,0.35,0.61,1,0.87,1.44c0.17,0.26,0.35,1.22,0.35,2.05c0,0.31-0.04,0.61-0.09,0.83c-0.09,0.87-0.09,1.7-0.39,2.14
		c-0.26,0.44-0.48,0.92-0.74,1.4c0,0.04-0.04,0.09-0.04,0.13c-0.22,0.39-0.44,0.83-0.79,1.18c0.52,0.18,1.18,0.31,2.19,0.39
		c0.7,0,1.18-0.09,1.62-0.09c0.35,0,0.48,0.04,0.61,0.04c0.52,0,1.14-0.13,1.84-0.35c0.87-0.26,1.05-0.31,1.53-0.53
		C88.93,47.92,89.2,47.92,89.63,47.7z M79.05,48.97c-0.61-0.26-1.09-0.44-1.49-0.74c-0.31-0.26-0.92-0.61-1.36-1.01
		c-0.26-0.26-1.14-1.27-1.44-1.79l-0.57,1.01c-0.26,0.48-0.61,1.84-0.7,2.4c-0.04,0.44-0.13,0.88-0.13,1.36
		c0,1.09,0.39,1.4,0.7,1.53c0.17,0.09,0.35,0.13,0.61,0.13c0.22,0,0.52-0.04,0.87-0.13c0.39-0.13,0.83-0.53,1.36-0.7
		c0.52-0.26,0.79-0.74,1.22-1C78.31,49.89,78.66,49.41,79.05,48.97z M79.71,47.92l0.44-0.7c0.26-0.48,0.39-1.31,0.52-1.75
		c0.13-0.44,0.13-1.22,0.22-1.75c0.04-0.18,0.04-0.31,0.04-0.48c0-0.39-0.09-0.74-0.17-1c-0.13-0.39,0.04-1.01-0.44-1.27
		c-0.57-0.3-0.61-0.74-1.22-1.18c-0.35-0.17-0.52-0.22-0.7-0.22c-0.13,0-0.26,0.04-0.48,0.04c-0.48,0.09-0.66,0.52-0.87,0.92
		c-0.17,0.26-0.17,0.61-0.17,0.92c0,0.22,0.04,0.39,0.04,1.31c0,0.26,0,0.53,0.09,0.79c0.26,0.66,0.35,1.18,0.52,1.79
		c0.09,0.57,0.48,1.18,0.92,1.62C78.75,47.22,79.27,47.62,79.71,47.92z"/>
	<path d="M125.08,48.36c0.26-0.22,0.66-0.26,1.27-0.57l1.31-0.66c0.13-0.09,0.35-0.17,0.66-0.17c0.13,0,0.26,0.04,0.35,0.09
		c0.13,0.13,0.13,0.22,0.13,0.35c-0.04,0.13-0.35,0.3-0.39,0.35c-0.44,0.26-1.05,0.52-1.62,0.79c-0.7,0.22-1.05,0.44-1.84,0.79
		c-0.39,0.17-1.57,0.26-1.71,0.44c-0.17,0.18-1.27,0.39-2.05,0.39c-0.48,0-1.18,0.13-1.75,0.13c-0.39,0-1.84-0.13-2.14-0.26
		c-0.44-0.13-0.92-0.57-1.36-0.79c-0.44-0.26-0.87-0.96-1.27-1.53c-0.35-0.65-0.39-1.35-0.48-1.62c0-0.09-0.04-0.13-0.09-0.13
		c-0.13,0-0.39,0.18-0.74,0.48c-0.48,0.39-0.79,0.96-1.35,1.22c-0.39,0.13-0.79,0.22-1.09,0.53c-0.61,0.39-0.83,1-1.57,1.53
		c-0.74,0.57-1.09,0.88-1.79,1.27c-0.7,0.35-1.7,0.39-2.54,0.74c-0.26,0.09-0.48,0.13-0.7,0.13c-0.52,0-1.01-0.18-1.44-0.26
		c-0.66-0.22-1.44-0.92-1.44-1.53c0-0.57,0.17-1.62,0.48-2.1c0.39-0.44,0.44-1.31,0.79-1.79c0.31-0.39,0.92-1.49,1.09-1.92
		c0.09-0.22,0.39-0.79,0.39-1.22c0-0.35-0.18-0.48-0.61-0.48c-0.52,0-2.67,0.79-3.72,1.31c-0.48,0.3-2.23,1.01-2.67,1.31
		c-0.52,0.26-1.53,0.74-1.88,0.88l-3.02,1.31c-0.04,0.04-0.48,0.26-0.7,0.26c-0.22,0-0.52-0.18-0.57-0.39
		c0-0.17,0.22-0.26,0.57-0.44c0.22-0.17,0.31-0.17,0.48-0.26c0.44-0.04,1.01-0.31,1.05-0.44c0.13-0.17,1.01-0.57,1.66-0.83
		l1.31-0.61c0.39-0.13,0.87-0.39,1.31-0.61c0.57-0.26,0.74-0.09,1.18-0.44c0.39-0.22,4.33-2.14,5.16-2.45
		c0.66-0.26,1.84-0.79,2.36-0.79c0.61,0,1.22,0.13,1.62,0.48c0.31,0.18,0.48,0.57,0.48,0.96c0,0.26-0.04,0.52-0.17,0.74
		c-0.13,0.53-0.48,1.22-0.79,1.75c-0.35,0.57-0.61,1.62-0.92,2.05c-0.39,0.44-0.61,1.35-0.74,1.75c-0.17,0.48-0.48,1.01-0.48,1.62
		c0.04,0.48,0.39,0.66,0.79,0.66c0.13,0,0.31-0.04,0.44-0.09c0.39-0.18,0.92-0.57,1.4-0.88c0.57-0.26,1.62-1.36,2.1-1.66
		c0.57-0.39,0.7-0.74,1.05-0.74c0.17,0,0.48-0.35,0.74-0.65c0.35-0.35,0.57-0.39,0.92-0.74c0.39-0.35,0.79-0.61,1.27-1.14
		c0.48-0.57,0.92-0.88,1.27-1.36c0.35-0.44,0.96-0.83,1.31-1.18c0.22-0.31,0.61-0.48,1.01-0.48c0.09,0,0.22,0,0.31,0.04
		c0.52,0.04,0.96,0.35,0.96,0.7c0,0.57-0.04,0.88-0.39,1.44c-0.39,0.83-0.39,1.4-0.39,1.71c0,0.35,0.17,0.87,0.22,1.62
		c0.09,0.7,0.57,1.14,0.7,1.31c0.22,0.22,0.88,0.44,1.57,0.57c0.66,0.13,1.31,0.13,1.79,0.13c0.39-0.04,1.22-0.13,2.05-0.39
		C124.56,48.49,124.87,48.58,125.08,48.36z"/>
	<path d="M128.1,47.7c-0.26-0.04-0.44-0.26-0.44-0.48c0-0.17,0.44-0.31,0.48-0.31c0.22-0.13,0.31-0.26,0.39-0.26
		c0.44-0.04,0.79-0.22,0.92-0.35c0.04-0.09,0.79-0.48,1.4-0.7c0.39-0.18,0.92-0.48,2.75-1.4c0.44-0.48,2.1-4.24,2.45-4.24
		c0.22,0,0.26-0.48,0.35-0.92c0.04-0.31,1.84-2.93,2.14-3.02c0.39-0.04,0.61-0.7,0.88-1.14c0.31-0.35,1.18-1.27,1.31-1.36
		c0.22-0.13,0.35-0.74,1.05-1.31c0.7-0.53,1.84-1.92,2.27-2.14c0.48-0.26,1.31-1.14,1.79-1.44c0.61-0.39,0.79-0.39,1.18-0.61
		c0.39-0.26,1.79-1.01,2.36-1.01s1.66,0.31,1.92,0.87c0.04,0.18,0.09,0.39,0.09,0.66c0,0.66-0.17,1.44-0.57,1.84
		c-0.44,0.57-0.96,1.53-1.31,1.71c-0.39,0.17-0.22,0.35-0.61,0.79c-0.44,0.48-0.31,0.61-0.66,0.83c-0.31,0.26-0.61,0.66-0.92,0.83
		c-0.22,0.18-0.09,0.48-0.31,0.7c-0.83,0.74-1.4,1.22-1.57,1.57c-0.17,0.22-1.05,1.09-1.57,1.44c-0.57,0.35-0.92,0.65-1.22,1.09
		c-0.04,0.18-1.09,0.83-1.53,1.36c-0.39,0.53-1.35,0.83-1.7,1.22c-0.35,0.35-1.18,0.88-1.79,1.18c-0.66,1.57-0.79,2.32-1.14,3.41
		c-0.48,1.18-0.48,1.66-0.48,2.1c0,0.31-0.13,0.48-0.13,0.7c0,0.13,0.04,0.26,0.13,0.44c0.22,0.74,0.09,0.88,0.44,1.22
		c0.22,0.26,0.48,0.48,0.92,0.48c0.44,0,0.57-0.13,1-0.13c0.44-0.09,0.87-0.13,1.22-0.48c0.35-0.39,0.83-0.7,1.49-1.36
		c0.17-0.13,0.39-0.44,0.57-0.74c-0.66-0.18-1.36-0.83-1.84-1.36c-0.44-0.57-0.87-1.49-0.87-2.27c0-0.31,0.04-0.57,0.22-0.83
		c0.35-0.57,1.62-1.22,2.36-1.27c0.48-0.04,0.92-0.17,1.31-0.17c0.17,0,0.35,0.04,0.48,0.13c0.31,0.22,0.7,0.88,0.74,1.27
		c0.09,0.57,0.22,1.22,0.22,1.75c0,0.44-0.39,1.49-0.79,2.14c0.31,0.31,1.22,0.44,2.32,0.44c0.31,0,0.66-0.04,1.01-0.04
		c0.52-0.04,0.96-0.04,1.49-0.26c0.66-0.17,0.79-0.3,0.92-0.3c0.92-0.22,1.49-0.57,2.1-0.74c0.26-0.13,0.57-0.35,0.92-0.35
		c0.13,0,0.26,0.04,0.39,0.13c0.09,0.09,0.13,0.13,0.13,0.22c0,0.26-0.52,0.48-0.96,0.66c-0.52,0.26-1.36,0.61-2.62,0.96
		c-0.52,0.13-1.35,0.48-1.71,0.48c-0.26,0-1,0.13-1.49,0.13c-0.52,0-1.97-0.04-2.14-0.04c-0.22,0-0.61-0.09-1.09-0.22
		c-0.44,0.7-0.96,1.4-1.22,1.57c-0.39,0.26-0.48,0.18-0.87,0.57c-0.35,0.44-1.66,1.27-2.27,1.44c-0.57,0.13-1.18,0.3-1.75,0.3
		c-0.44-0.04-2.01-0.52-2.8-1.13c-0.74-0.66-1.14-1.49-1.31-2.54c-0.04-0.17-0.04-0.39-0.04-0.57c0-0.79,0.22-1.49,0.31-2.19
		c0.17-0.57,0.44-1.18,0.44-1.22c-0.66,0.39-1.66,0.79-1.92,0.88c-0.22,0.04-1.4,0.66-1.71,0.79c-0.26,0.18-0.66,0.31-1,0.44
		C128.53,47.57,128.27,47.7,128.1,47.7z M138.24,41.5c0,0,2.88-1.92,3.37-2.27c0.48-0.39,0.7-0.74,0.92-1.05
		c0.22-0.26,1.09-0.79,1.44-1.05c0.31-0.31,1.4-1.75,1.49-1.84c0.22-0.09,0.39-0.22,0.61-0.57c0.26-0.31,0.44-0.35,0.52-0.48
		c1.66-2.01,2.71-3.58,2.93-3.89c0.26-0.44,0.26-0.57,0.26-0.92c0-0.26-0.22-0.48-0.48-0.48c-0.26,0-0.74,0.04-1.18,0.57
		c-0.52,0.44-1.27,1-1.66,1.49c-0.48,0.39-0.61,0.66-0.88,1.05c-0.22,0.39-0.61,0.57-0.79,0.7c-1.27,1.01-2.71,3.5-3.41,4.24
		c-0.66,0.7-1.22,1.14-1.49,1.62c-0.39,0.44-1.01,1.57-1.36,2.19C138.41,40.97,138.32,41.23,138.24,41.5z M142.48,47.53
		c0.17-0.31,0.31-0.88,0.39-1.31c0-0.61,0-1.35-0.22-1.66c-0.13-0.35-0.13-0.74-0.74-0.74c-0.44,0-0.57,0.48-0.57,1.01
		c0,0.35,0.17,0.66,0.17,1.01c0.09,0.61,0.13,0.92,0.61,1.36C142.22,47.35,142.39,47.44,142.48,47.53z"/>
	<path d="M163.59,52.51c-0.57,0.31-1.4,0.74-2.01,0.83s-1.31,0.39-2.45,0.39c-1.57,0-2.45-1.22-2.45-2.75
		c0-1.01,0.31-2.01,0.57-3.19c0.17-0.83,1.01-2.19,1.49-3.1l-0.44,0.31c-0.44,0.26-1.49,0.79-1.84,0.83l-1.88,0.83
		c-0.39,0.18-0.7,0.35-1.14,0.48c-0.13,0.04-0.52,0.26-0.7,0.26c-0.31,0-0.57-0.18-0.61-0.35c0-0.18,0.26-0.31,0.61-0.44
		c0.18-0.22,0.35-0.26,0.44-0.26c0.48-0.09,1.01-0.35,1.09-0.48c0.13-0.09,0.96-0.52,1.66-0.83c0.35-0.09,1.01-0.48,1.31-0.57
		c0.39-0.09,0.88-0.39,1.36-0.61c0.31-0.13,0.48-0.13,0.74-0.31c0.39-1.44,1.44-2.71,2.27-4.07c0.52-0.87,1.05-1.35,1.62-2.1
		c0.61-0.79,1.01-1.66,1.66-2.27c0.48-0.61,1.22-1.09,1.62-1.31c0.44-0.22,0.83-1.44,1.66-2.01c0.88-0.57,1.27-1.4,1.88-1.57
		c0.53-0.22,1.27-1.14,2.14-1.71c0.87-0.61,1.97-1.18,2.93-1.18c0.74,0,1.66,0.35,1.66,1c0,0.39-0.04,0.61-0.26,1.18
		c-0.22,0.48-0.48,1.14-0.79,1.53c-0.26,0.35-0.61,0.87-0.96,1.31c-0.35,0.48-0.7,0.83-1.01,1.22c-0.35,0.35-0.57,0.83-1.14,1.14
		c-0.57,0.3-0.57,0.65-1.01,0.92c-0.39,0.35-1.31,1.4-1.75,1.79c-0.35,0.44-0.83,0.66-1.14,0.96c-0.31,0.31-0.74,0.79-1.14,1.09
		c-0.48,0.26-0.96,0.61-1.27,0.92c-0.26,0.31-1.35,0.96-2.05,1.36c-0.35,0.18-1.14,0.53-1.14,0.53c-0.53,1.01-1.18,2.05-1.49,2.67
		c-0.57,1.14-0.66,2.1-0.92,2.71c-0.17,0.57-0.13,1.09-0.48,1.71c-0.35,0.57-0.35,1.22-0.35,1.84c0,0.39,0.31,0.74,1.18,0.74
		c0.35,0,0.87-0.13,1.35-0.26c0.39-0.13,1.14-0.3,1.71-0.44c0.57-0.17,1.22-0.87,1.84-0.92c0.61-0.04,1.05-0.44,1.36-0.61
		c0.48-0.26,1.09-0.31,1.49-0.61c0.26-0.22,1.57-0.53,1.79-0.7c0.26-0.22,0.83-0.31,1.14-0.44c0.31-0.13,0.04-0.09,0.66-0.35
		c0.35-0.13,0.87-0.39,1.22-0.66c0.13-0.13,0.39-0.22,0.61-0.22c0.17,0,0.48,0.13,0.48,0.35c0,0.09-0.09,0.22-0.17,0.35
		c-0.39,0.44-1.09,0.48-1.57,0.83c-0.61,0.44-1.22,0.44-1.92,0.92c-0.35,0.22-0.74,0.35-1.09,0.44c-0.57,0.18-1.05,0.26-1.14,0.39
		c-0.26,0.3-1.49,0.74-2.01,0.96C166.34,51.2,164.16,52.16,163.59,52.51z M165.21,40.23c0.35-0.31,0.87-0.48,1.27-0.92
		c0.35-0.53,0.87-0.83,1.27-1.18c0.35-0.26,1.09-0.92,1.31-1.01c0.26-0.09,0.31-0.39,0.83-1.01c0.57-0.61,1.09-1.05,1.57-1.62
		c0.48-0.61,0.66-0.92,1.05-1.14c0.44-0.18,0.61-0.74,0.92-1.05c0.26-0.26,0.88-0.96,1.14-1.4c0.13-0.22,0.39-0.66,0.39-1
		c0-0.22-0.13-0.39-0.52-0.39c-0.35,0-0.92,0.52-1.36,0.96c-0.44,0.44-0.87,1.09-1.14,1.09c-0.31,0-0.61,0.53-0.96,0.87
		c-0.39,0.39-0.48,0.74-1.09,1.18c-0.52,0.44-1.31,1.53-1.75,1.88c-0.39,0.44-0.66,0.87-1.57,1.75c-0.96,0.92-1.18,1.57-1.35,1.84
		c-0.17,0.31-0.57,0.96-1.22,1.92C163.98,41.02,164.86,40.58,165.21,40.23z"/>
	<path d="M187.41,52.03c-0.17,0-0.35,0.04-0.52,0.04c-0.88,0-1.92-0.18-2.62-0.35c-0.79-0.26-1.31-0.7-1.62-1.09
		c-0.35-0.48-1.05-1.22-1.05-1.79c-0.04-0.57-0.17-1.31-0.17-1.79c0-0.31,0.22-0.48,0.26-1.18c0-0.57,0.52-1.44,1.18-2.27
		c-1,0.57-2.75,1.27-3.19,1.57c-0.48,0.26-1.53,0.74-1.84,0.88c-0.48,0.22-1.36,0.52-1.92,0.83c-0.35,0.18-0.79,0.31-1.09,0.48
		c-0.13,0.04-0.57,0.26-0.7,0.26c-0.31,0-0.61-0.18-0.61-0.39c0-0.17,0.31-0.26,0.61-0.44c0.13-0.17,0.31-0.17,0.48-0.26
		c0.39-0.04,0.96-0.31,1.05-0.44c0.13-0.17,0.96-0.48,1.66-0.83c0.31-0.13,0.96-0.35,1.31-0.61c0.31-0.22,0.87-0.39,1.31-0.61
		c0.52-0.26,0.66-0.13,1.18-0.44c0.66-0.39,3.32-1.84,4.42-2.36c1.71-0.83,2.27-1.09,3.1-1.4c0.39-0.13,0.88-0.22,1.36-0.22
		c0.44,0,0.83,0.04,1.14,0.13c0.52,0.22,0.74,0.92,0.74,1.44c0,0.57-0.35,1.14-0.74,1.57c-0.48,0.66-1.44,1.49-2.14,1.97
		c-0.83,0.57-1.53,1.05-2.45,1.53c-0.57,0.35-1.31,0.61-1.79,0.74c0,0.26,0.09,0.53,0.09,0.83c0.09,0.44,0.52,1.57,0.83,1.88
		c0.39,0.35,0.83,0.44,1.05,0.57c0.17,0.09,0.87,0.13,1.49,0.13c1.57,0,2.23-0.09,2.54-0.22c0.61-0.17,1.4-0.3,1.66-0.48
		c0.52-0.22,1.05-0.09,1.53-0.39c0.22-0.22,1.53-0.57,1.84-0.74c0.22-0.17,0.79-0.26,1.09-0.39c0.26-0.13,0.09-0.09,0.66-0.39
		c0.22-0.09,0.52-0.22,0.66-0.31c0.17-0.09,0.52-0.35,0.57-0.39c0.17-0.09,0.39-0.18,0.61-0.18c0.13,0,0.26,0.04,0.39,0.13
		c0.09,0.13,0.13,0.22,0.13,0.3c0,0.18-0.13,0.26-0.17,0.31c-0.26,0.13-0.92,0.44-0.92,0.44c-0.17,0.17-0.52,0.31-0.66,0.48
		c-0.61,0.39-1.22,0.35-1.92,0.79c-0.35,0.22-0.79,0.35-1.14,0.44c-0.57,0.22-1.05,0.26-1.14,0.35c-0.22,0.39-1.66,0.74-2.23,0.92
		C191.26,51.33,189.51,51.81,187.41,52.03z M184.92,46.09c0.52-0.17,1.18-0.48,1.53-0.7c0.7-0.52,1.44-1.01,1.62-1.14
		c0.22-0.22,1.31-1.4,1.49-1.66c0.22-0.26,0.39-0.74,0.39-1.09c0-0.13-0.17-0.35-0.48-0.35c-0.17,0-0.39,0.09-0.66,0.26
		c-0.7,0.53-1.22,0.96-1.53,1.27c-0.61,0.57-1.71,1.66-2.19,2.89C184.96,45.82,184.96,45.91,184.92,46.09z"/>
</g>
</svg>
