<?xml version="1.0" encoding="utf-8"?>
<!-- Generator: Adobe Illustrator 26.0.2, SVG Export Plug-In . SVG Version: 6.00 Build 0)  -->
<svg version="1.1" id="レイヤー_1" xmlns="http://www.w3.org/2000/svg" xmlns:xlink="http://www.w3.org/1999/xlink" x="0px"
	 y="0px" viewBox="0 0 170 40" style="enable-background:new 0 0 170 40;" xml:space="preserve">
<style type="text/css">
	.st0{enable-background:new    ;}
</style>
<g class="st0">
	<path d="M10.27,21.88L3.38,5.26C3.32,5.1,3.17,4.75,2.98,4.25C2.14,1.99,1.45,1.33-0.08,1.33h-0.06h-0.03L-0.42,1.3V0.25h9.33V1.3
		H8.73c-1.72,0-2.38,0.35-2.38,1.17c0,0.41,0.15,0.89,0.66,2.16l5.24,12.53l4.36-10.98c0.57-1.46,0.9-2.66,0.9-3.27
		c0-0.92-0.84-1.55-2.11-1.59L15.17,1.3V0.25h6.44V1.3l-0.27,0.03c-1.59,0.25-1.81,0.57-3.85,5.58L11.5,21.88H10.27z"/>
	<path d="M27.27,17.25c0.06,2.73,0.27,3.08,1.81,3.11h0.27v1.05h-7.37v-1.05h0.45c1.59-0.03,1.78-0.38,1.84-3.11V13.1
		c-0.03-2.54-0.3-3.01-1.9-3.01h-0.39V9.07c1.11-0.1,4-0.63,5.02-0.95h0.27V17.25z M27.51,1.93c0,1.14-0.84,2.06-1.93,2.06
		c-1.05,0-1.9-0.92-1.9-2.09c0-1.08,0.87-2,1.9-2C26.67-0.1,27.51,0.82,27.51,1.93z"/>
	<path d="M35.48,17.25c0,2.7,0.24,3.08,1.84,3.11h0.27v1.05h-7.25v-1.05h0.3c1.59-0.03,1.78-0.32,1.84-3.11V4.53
		c0.03-2.19-0.3-2.67-1.84-2.73h-0.15V0.79c1.29-0.1,4.06-0.6,4.72-0.86h0.27V17.25z"/>
	<path d="M43.72,17.25c0,2.7,0.24,3.08,1.84,3.11h0.27v1.05h-7.25v-1.05h0.3c1.59-0.03,1.78-0.32,1.84-3.11V4.53
		c0.03-2.19-0.3-2.67-1.84-2.73h-0.15V0.79c1.29-0.1,4.06-0.6,4.72-0.86h0.27V17.25z"/>
	<path d="M64.97,21.85L51.16,3.48v13.01c0.03,1.97,0.06,2.06,0.3,2.54c0.45,0.79,1.56,1.33,2.74,1.33h0.27v1.05h-7.49v-1.05
		l0.15-0.03c1.2-0.06,2.35-0.6,2.68-1.3c0.21-0.38,0.24-0.73,0.24-2.54V5.42c-0.12-3.58-0.48-4.12-2.77-4.12h-0.18V0.25h6.2
		l11.61,15.32V4.6c0.03-2.25-0.69-3.08-2.89-3.3h-0.33V0.25h7.28V1.3l-0.24,0.03c-2.11,0.32-2.8,1.17-2.71,3.43v17.1H64.97z"/>
	<path d="M81.85,18.68c-0.81,1.94-2.89,3.24-5.24,3.24c-3.7,0-6.41-2.92-6.41-6.85c0-4,2.65-6.95,6.26-6.95
		c3.22,0,5.54,2.32,5.54,5.49h-8.4c-0.06,0.51-0.06,0.76-0.06,1.14c0,3.84,1.32,5.96,3.76,5.96c1.56,0,2.83-0.83,3.61-2.32
		L81.85,18.68z M78.72,12.65c0.03-0.22,0.03-0.29,0.03-0.51c0-1.84-0.93-2.98-2.38-2.98c-0.81,0-1.62,0.44-2.05,1.08
		c-0.39,0.6-0.54,1.14-0.69,2.41H78.72z"/>
</g>
<g class="st0">
	<path d="M67.52,21.83c0.77-0.03,1.26-0.05,2.74-0.14c1.67-0.08,2.41-0.11,3.78-0.11c3.89,0,6.4,0.49,8.51,1.67
		c2.65,1.48,4.19,4.35,4.19,7.8c0,4.08-2.08,7.2-5.64,8.37C79.67,39.89,78.52,40,75.02,40h-7.55v-0.9h0.57
		c1.94-0.03,2.24-0.52,2.27-3.5V26.1c0-2.96-0.3-3.37-2.38-3.34h-0.41V21.83z M73.65,34.88c0,2.08,0.05,2.76,0.25,3.2
		c0.3,0.68,0.98,0.96,2.35,0.96c2.54,0,4.02-0.57,5.14-2.05c1.01-1.37,1.56-3.37,1.56-5.8c0-3.83-1.18-6.46-3.45-7.8
		c-1.12-0.63-2.22-0.88-4.16-0.88c-0.6,0-1.09,0.03-1.7,0.05V34.88z"/>
	<path d="M101.34,34.5c0,3.37-2.63,5.94-6.05,5.94c-3.64,0-6.27-2.49-6.27-5.91c0-3.47,2.6-5.99,6.16-5.99S101.34,31.05,101.34,34.5
		z M92.06,34.5c0,3.5,0.93,5.03,3.12,5.03s3.12-1.5,3.12-5.12c0-3.42-0.96-4.95-3.12-4.95C93,29.47,92.06,30.97,92.06,34.5z"/>
	<path d="M115.07,36.39c0.03,2.33,0.25,2.68,1.64,2.71h0.08V40c-1.45-0.03-3.26,0.19-4,0.44h-0.16c-0.19-0.44-0.3-1.31-0.3-2.35
		c-1.09,1.53-2.57,2.35-4.19,2.35c-1.34,0-2.57-0.63-3.12-1.56c-0.33-0.6-0.44-1.2-0.44-2.41v-3.91c0-2.35-0.19-2.65-1.61-2.68
		h-0.14v-0.9h4.49v7.5c0,0.96,0.08,1.45,0.25,1.75c0.3,0.52,0.93,0.85,1.56,0.85c1.26,0,2.54-0.96,2.98-2.22
		c0.11-0.3,0.22-0.96,0.22-1.2v-3.09c0-2.35-0.19-2.65-1.67-2.68h-0.22v-0.9h4.62V36.39z"/>
	<path d="M121.56,21.7c2.93-0.11,2.93-0.11,3.72-0.11c2.71,0,4.49,0.33,5.77,1.09c1.15,0.68,1.86,1.92,1.86,3.26
		c0,2.24-1.61,3.64-4.95,4.29c1.59,0.17,2.63,0.44,3.5,0.93c1.53,0.88,2.38,2.24,2.38,3.94c0,1.89-1.09,3.5-2.84,4.24
		c-1.12,0.46-2.49,0.66-4.92,0.66h-7.93v-0.9h0.52c1.94-0.03,2.24-0.49,2.27-3.5V26.1c-0.03-3.01-0.3-3.42-2.35-3.39h-0.3v-0.93
		L121.56,21.7z M124.79,29.8c3.37,0,4.49-0.9,4.49-3.61c0-1.56-0.44-2.57-1.31-3.09c-0.66-0.38-1.45-0.52-2.9-0.52
		c-0.38,0-0.49,0-0.79,0.03v7.2H124.79z M124.27,35.08c0,3.45,0.27,3.97,2.02,3.97c2.57,0,3.86-1.31,3.86-3.91
		c0-3.23-1.29-4.38-4.98-4.38c-0.27,0-0.44,0-0.9,0.03V35.08z"/>
	<path d="M140.19,36.42c0,2.33,0.22,2.65,1.67,2.68h0.25V40h-6.59v-0.9h0.27c1.45-0.03,1.61-0.27,1.67-2.68V25.45
		c0.03-1.89-0.27-2.3-1.67-2.35h-0.14v-0.88c1.18-0.08,3.69-0.52,4.3-0.74h0.25V36.42z"/>
	<path d="M155.26,36.39c0.03,2.33,0.25,2.68,1.64,2.71h0.08V40c-1.45-0.03-3.26,0.19-3.99,0.44h-0.16c-0.19-0.44-0.3-1.31-0.3-2.35
		c-1.09,1.53-2.57,2.35-4.19,2.35c-1.34,0-2.57-0.63-3.12-1.56c-0.33-0.6-0.44-1.2-0.44-2.41v-3.91c0-2.35-0.19-2.65-1.61-2.68
		h-0.14v-0.9h4.49v7.5c0,0.96,0.08,1.45,0.25,1.75c0.3,0.52,0.93,0.85,1.56,0.85c1.26,0,2.54-0.96,2.98-2.22
		c0.11-0.3,0.22-0.96,0.22-1.2v-3.09c0-2.35-0.19-2.65-1.67-2.68h-0.22v-0.9h4.62V36.39z"/>
	<path d="M169.13,37.65c-0.74,1.67-2.63,2.79-4.76,2.79c-3.37,0-5.83-2.52-5.83-5.91c0-3.45,2.41-5.99,5.69-5.99
		c2.93,0,5.03,2,5.03,4.73h-7.63c-0.05,0.44-0.05,0.66-0.05,0.99c0,3.31,1.2,5.14,3.42,5.14c1.42,0,2.57-0.71,3.28-2L169.13,37.65z
		 M166.29,32.45c0.03-0.19,0.03-0.25,0.03-0.44c0-1.59-0.85-2.57-2.16-2.57c-0.74,0-1.48,0.38-1.86,0.93
		c-0.36,0.52-0.49,0.99-0.63,2.08H166.29z"/>
</g>
</svg>
